<svg xmlns="http://www.w3.org/2000/svg" version="1.1" xmlns:xlink="http://www.w3.org/1999/xlink" xmlns:svgjs="http://svgjs.com/svgjs" width="1440" height="560" preserveAspectRatio="none" viewBox="0 0 1440 560"><g mask="url(&quot;#SvgjsMask1014&quot;)" fill="none"><path d="M781.35 668.75C877.02 639.11 842.04 365.7 1042.27 364.73 1242.5 363.76 1429.4 498.06 1564.11 499.13" stroke="rgba(21, 126, 79, 0.51)" stroke-width="2"></path><path d="M621.63 607.99C803.08 571.75 887.59 107.64 1165.85 106.34 1444.11 105.04 1558.49 367.94 1710.07 375.14" stroke="rgba(21, 126, 79, 0.51)" stroke-width="2"></path><path d="M317.74 585.21C512.85 557.33 614.83 102.23 937.95 98.51 1261.07 94.79 1400.08 221.12 1558.16 221.71" stroke="rgba(21, 126, 79, 0.51)" stroke-width="2"></path><path d="M204.32 561.85C318.11 558.66 413.89 391.34 626.45 391.16 839.01 390.98 837.51 461.16 1048.58 461.16 1259.64 461.16 1363.74 391.4 1470.71 391.16" stroke="rgba(21, 126, 79, 0.51)" stroke-width="2"></path><path d="M719.89 633.69C858.98 615.12 936.79 295.41 1166.63 293.87 1396.47 292.33 1497.52 415.95 1613.37 417.07" stroke="rgba(21, 126, 79, 0.51)" stroke-width="2"></path></g><defs><mask id="SvgjsMask1014"><rect width="1440" height="560" fill="#ffffff"></rect></mask></defs></svg>