<svg xmlns="http://www.w3.org/2000/svg" version="1.1" xmlns:xlink="http://www.w3.org/1999/xlink" xmlns:svgjs="http://svgjs.com/svgjs" width="1440" height="560" preserveAspectRatio="none" viewBox="0 0 1440 560"><g mask="url(&quot;#SvgjsMask1056&quot;)" fill="none"><rect width="1440" height="560" x="0" y="0" fill="rgba(40, 45, 72, 0.48)"></rect><path d="M 0,115 C 36,122.4 108,153.6 180,152 C 252,150.4 288,99.4 360,107 C 432,114.6 468,187.6 540,190 C 612,192.4 648,104.6 720,119 C 792,133.4 828,279.8 900,262 C 972,244.2 1008,47.6 1080,30 C 1152,12.4 1188,175 1260,174 C 1332,173 1404,54.8 1440,25L1440 560L0 560z" fill="rgba(231, 110, 80, 0.44)"></path><path d="M 0,348 C 72,367 216,452.4 360,443 C 504,433.6 576,301.6 720,301 C 864,300.4 936,440.4 1080,440 C 1224,439.6 1368,327.2 1440,299L1440 560L0 560z" fill="rgba(83, 104, 116, 0.49)"></path></g><defs><mask id="SvgjsMask1056"><rect width="1440" height="560" fill="#ffffff"></rect></mask></defs></svg>